<svg xmlns="http://www.w3.org/2000/svg" viewBox="0 0 67.06 62.65"><defs><style>.cls-1{fill:#444;}.cls-2{fill:none;stroke:#222;stroke-linecap:round;stroke-linejoin:round;stroke-width:1.65px;}.cls-3{fill:#222;}</style></defs><g id="Layer_2" data-name="Layer 2"><g id="Icons"><circle class="cls-1" cx="34.74" cy="31.32" r="11.54" transform="translate(-9.34 15.68) rotate(-22.5)"/><path class="cls-1" d="M34.74,9.38A21.95,21.95,0,1,0,45.47,50.46a3.76,3.76,0,0,0,2.19.7,3.82,3.82,0,0,0,3.81-3.81,3.71,3.71,0,0,0-.31-1.49A21.93,21.93,0,0,0,34.74,9.38ZM15.15,31.32A19.59,19.59,0,1,1,49.59,44.07a3.73,3.73,0,0,0-1.93-.53,3.82,3.82,0,0,0-3.81,3.81,4,4,0,0,0,.19,1.2,19.37,19.37,0,0,1-9.3,2.36A19.61,19.61,0,0,1,15.15,31.32Z"/><path class="cls-1" d="M60.24,13.13A6,6,0,0,0,51.6,4.92,31.36,31.36,0,0,0,4.88,21.8H4.82a4.81,4.81,0,0,0-1.41,9.42v.1A31.32,31.32,0,0,0,56.88,53.47a31.32,31.32,0,0,0,3.36-40.34ZM34.74,60.29a29,29,0,0,1-29-28.95,4.82,4.82,0,0,0,1.4-8.92A28.95,28.95,0,0,1,50.27,6.89a6,6,0,0,0,8.07,7.67,28.95,28.95,0,0,1-23.6,45.73Z"/><g id="_8" data-name="8"><circle class="cls-2" cx="36.32" cy="31.36" r="10.71"/><path class="cls-2" d="M29.63,31.36a6.7,6.7,0,0,1,6.69-6.69"/><path class="cls-3" d="M36.33,53.23h0a22.53,22.53,0,0,1-4.26-.41.84.84,0,0,1-.65-1,.83.83,0,0,1,1-.65,20.72,20.72,0,0,0,3.94.38h0a.83.83,0,1,1,0,1.65Z"/><path class="cls-3" d="M40.43,52.83a.83.83,0,0,1-.81-.67.84.84,0,0,1,.65-1A19.37,19.37,0,0,0,44.07,50a.83.83,0,1,1,.63,1.53,21.06,21.06,0,0,1-4.1,1.24Z"/><path class="cls-3" d="M28.28,51.64a.87.87,0,0,1-.32-.06,22.48,22.48,0,0,1-3.78-2,.83.83,0,1,1,.92-1.38,19.53,19.53,0,0,0,3.49,1.87A.84.84,0,0,1,29,51.13.82.82,0,0,1,28.28,51.64Z"/><path class="cls-3" d="M21.45,47.08a.84.84,0,0,1-.59-.24,22.07,22.07,0,0,1-2.72-3.31.84.84,0,0,1,.23-1.15.82.82,0,0,1,1.14.23A20,20,0,0,0,22,45.67a.83.83,0,0,1,0,1.17A.82.82,0,0,1,21.45,47.08Z"/><path class="cls-3" d="M53.82,43.87a.89.89,0,0,1-.46-.13.83.83,0,0,1-.22-1.15A21.3,21.3,0,0,0,55,39.1a.82.82,0,1,1,1.52.63,21.13,21.13,0,0,1-2,3.78A.82.82,0,0,1,53.82,43.87Z"/><path class="cls-3" d="M16.87,40.26a.82.82,0,0,1-.76-.51,21.8,21.8,0,0,1-1.25-4.1.83.83,0,0,1,.65-1,.82.82,0,0,1,1,.65,20.22,20.22,0,0,0,1.16,3.79.84.84,0,0,1-.45,1.08A.87.87,0,0,1,16.87,40.26Z"/><path class="cls-3" d="M57,36.29l-.16,0a.82.82,0,0,1-.65-1,20.72,20.72,0,0,0,.38-3.94v-.05a.83.83,0,1,1,1.65,0v.05a22.45,22.45,0,0,1-.41,4.26A.83.83,0,0,1,57,36.29Z"/><path class="cls-3" d="M15.27,32.21a.83.83,0,0,1-.83-.83v0a22.16,22.16,0,0,1,.41-4.24.83.83,0,0,1,1.63.32,19.73,19.73,0,0,0-.38,3.92v0A.83.83,0,0,1,15.27,32.21Z"/><path class="cls-3" d="M57,28a.82.82,0,0,1-.81-.66A20,20,0,0,0,55,23.58a.82.82,0,0,1,1.52-.64A21.83,21.83,0,0,1,57.77,27a.82.82,0,0,1-.65,1A.47.47,0,0,1,57,28Z"/><path class="cls-3" d="M16.86,24.15a.87.87,0,0,1-.32-.06A.83.83,0,0,1,16.09,23a22.48,22.48,0,0,1,2-3.78.83.83,0,1,1,1.38.92,19.53,19.53,0,0,0-1.87,3.49A.82.82,0,0,1,16.86,24.15Z"/><path class="cls-3" d="M53.8,20.45a.84.84,0,0,1-.69-.36A20,20,0,0,0,50.59,17a.82.82,0,0,1,1.16-1.17,21.07,21.07,0,0,1,2.73,3.31.81.81,0,0,1-.22,1.14A.78.78,0,0,1,53.8,20.45Z"/><path class="cls-3" d="M21.41,17.32a.82.82,0,0,1-.58-.24.83.83,0,0,1,0-1.17,21.58,21.58,0,0,1,3.31-2.72.81.81,0,0,1,1.14.22.82.82,0,0,1-.22,1.15A19.44,19.44,0,0,0,22,17.08.84.84,0,0,1,21.41,17.32Z"/><path class="cls-3" d="M48,14.66a.86.86,0,0,1-.46-.14A20.28,20.28,0,0,0,44,12.65a.82.82,0,1,1,.63-1.52,21.82,21.82,0,0,1,3.79,2A.83.83,0,0,1,48,14.66Z"/><path class="cls-3" d="M28.23,12.75a.84.84,0,0,1-.76-.51.82.82,0,0,1,.44-1.08A21.8,21.8,0,0,1,32,9.91a.83.83,0,1,1,.33,1.62,20,20,0,0,0-3.79,1.15A.92.92,0,0,1,28.23,12.75Z"/><path class="cls-3" d="M40.39,11.53l-.16,0a20.47,20.47,0,0,0-3.91-.37h0a.83.83,0,0,1,0-1.66h0a22.21,22.21,0,0,1,4.23.41.83.83,0,0,1-.16,1.64Z"/><path class="cls-3" d="M34.29,62h0a30.37,30.37,0,0,1-4.16-.56.83.83,0,0,1,.33-1.62,27.43,27.43,0,0,0,3.94.53A.83.83,0,0,1,34.29,62Z"/><path class="cls-3" d="M38.37,62a.83.83,0,0,1,0-1.65,28.79,28.79,0,0,0,3.93-.54.84.84,0,0,1,1,.65.83.83,0,0,1-.64,1,30.81,30.81,0,0,1-4.16.57Z"/><path class="cls-3" d="M26.31,60.39a.86.86,0,0,1-.27,0,31.43,31.43,0,0,1-3.86-1.67A.83.83,0,0,1,23,57.2a28,28,0,0,0,3.64,1.58.84.84,0,0,1,.5,1.06A.83.83,0,0,1,26.31,60.39Z"/><path class="cls-3" d="M46.35,60.38a.83.83,0,0,1-.78-.55.84.84,0,0,1,.5-1.06,28,28,0,0,0,3.64-1.58.83.83,0,1,1,.76,1.47,31.83,31.83,0,0,1-3.84,1.67A.92.92,0,0,1,46.35,60.38Z"/><path class="cls-3" d="M19.08,56.64a.83.83,0,0,1-.48-.15,31.83,31.83,0,0,1-3.25-2.65.82.82,0,0,1,1.12-1.21,30.94,30.94,0,0,0,3.08,2.51.83.83,0,0,1-.47,1.5Z"/><path class="cls-3" d="M53.58,56.62a.82.82,0,0,1-.48-1.5,29.5,29.5,0,0,0,3.08-2.5.82.82,0,0,1,1.13,1.2,29.48,29.48,0,0,1-3.26,2.65A.75.75,0,0,1,53.58,56.62Z"/><path class="cls-3" d="M13.12,51.08a.81.81,0,0,1-.64-.3,31.21,31.21,0,0,1-2.42-3.43.81.81,0,0,1,.27-1.13.83.83,0,0,1,1.14.27,28.25,28.25,0,0,0,2.29,3.24.82.82,0,0,1-.12,1.16A.8.8,0,0,1,13.12,51.08Z"/><path class="cls-3" d="M59.53,51.06a.82.82,0,0,1-.64-1.34,30.66,30.66,0,0,0,2.29-3.25.83.83,0,0,1,1.41.86,30.29,30.29,0,0,1-2.42,3.43A.81.81,0,0,1,59.53,51.06Z"/><path class="cls-3" d="M8.88,44.13a.84.84,0,0,1-.76-.5,31,31,0,0,1-1.41-4,.84.84,0,0,1,.58-1,.82.82,0,0,1,1,.57A29.22,29.22,0,0,0,9.64,43a.83.83,0,0,1-.43,1.09A.78.78,0,0,1,8.88,44.13Z"/><path class="cls-3" d="M63.77,44.1a1,1,0,0,1-.33-.06A.83.83,0,0,1,63,43a29.17,29.17,0,0,0,1.33-3.74.82.82,0,1,1,1.59.44,31.08,31.08,0,0,1-1.41,4A.8.8,0,0,1,63.77,44.1Z"/><path class="cls-3" d="M6.68,36.29a.83.83,0,0,1-.82-.72,32.25,32.25,0,0,1-.29-4.18.83.83,0,0,1,.83-.83h0a.83.83,0,0,1,.83.83,29.06,29.06,0,0,0,.27,4,.83.83,0,0,1-.71.93Z"/><path class="cls-3" d="M66,36.26h-.11a.83.83,0,0,1-.71-.93,29.06,29.06,0,0,0,.27-4V31.3a.83.83,0,1,1,1.65,0v.05a30.61,30.61,0,0,1-.28,4.19A.83.83,0,0,1,66,36.26Z"/><path class="cls-3" d="M66,28.05a.84.84,0,0,1-.82-.71,28.58,28.58,0,0,0-.81-3.89A.82.82,0,0,1,65.91,23a30.16,30.16,0,0,1,.86,4.1.82.82,0,0,1-.7.93Z"/><path class="cls-3" d="M8.86,20.29a.78.78,0,0,1-.33-.07.82.82,0,0,1-.43-1.08A29.25,29.25,0,0,1,10,15.41a.83.83,0,1,1,1.41.86,29.37,29.37,0,0,0-1.83,3.52A.8.8,0,0,1,8.86,20.29Z"/><path class="cls-3" d="M63.74,20.21a.81.81,0,0,1-.75-.49,29.44,29.44,0,0,0-1.84-3.52.84.84,0,0,1,.28-1.14.83.83,0,0,1,1.13.28,30.54,30.54,0,0,1,1.94,3.72.83.83,0,0,1-.42,1.08A.8.8,0,0,1,63.74,20.21Z"/><path class="cls-3" d="M13.09,13.33a.8.8,0,0,1-.52-.19A.82.82,0,0,1,12.45,12a31.89,31.89,0,0,1,2.86-3.07.83.83,0,0,1,1.13,1.21A28.54,28.54,0,0,0,13.73,13,.82.82,0,0,1,13.09,13.33Z"/><path class="cls-3" d="M19,7.76a.83.83,0,0,1-.48-1.5,31.91,31.91,0,0,1,3.57-2.19.83.83,0,1,1,.77,1.47,28.7,28.7,0,0,0-3.39,2.07A.82.82,0,0,1,19,7.76Z"/><path class="cls-3" d="M52.5,7.18A27.87,27.87,0,0,0,49.66,5.5.83.83,0,0,1,50.42,4a28.63,28.63,0,0,1,2.88,1.7C53.54,5.89,52.69,7.3,52.5,7.18Z"/><path class="cls-3" d="M26.26,4A.82.82,0,0,1,26,2.4a29.53,29.53,0,0,1,4-1.14.83.83,0,1,1,.34,1.62A29.2,29.2,0,0,0,26.54,4,1,1,0,0,1,26.26,4Z"/><path class="cls-3" d="M46.3,4A.66.66,0,0,1,46,3.92a29.3,29.3,0,0,0-3.83-1.06.83.83,0,1,1,.34-1.62,29.9,29.9,0,0,1,4,1.13A.82.82,0,0,1,46.3,4Z"/><path class="cls-3" d="M34.23,2.34a.83.83,0,0,1,0-1.65,30.83,30.83,0,0,1,4.19,0,.83.83,0,1,1-.11,1.65,29.22,29.22,0,0,0-4,0Z"/><circle class="cls-2" cx="49.24" cy="47.38" r="2.98"/><circle class="cls-2" cx="6.4" cy="26.65" r="3.99"/><circle class="cls-2" cx="57.37" cy="9.2" r="5.14"/></g></g></g></svg>